<?xml version="1.0" encoding="UTF-8" standalone="no"?>
<!-- Created with Inkscape (http://www.inkscape.org/) -->

<svg
   version="1.1"
   id="svg1"
   width="613.08459"
   height="655.17981"
   viewBox="0 0 613.08459 655.17981"
   xmlns:xlink="http://www.w3.org/1999/xlink"
   xmlns="http://www.w3.org/2000/svg"
   xmlns:svg="http://www.w3.org/2000/svg">
  <defs
     id="defs1" />
  <g
     id="layer1"
     style="display:inline"
     transform="translate(-32.673294,-14.565861)">
    <ellipse
       style="fill:#002235;fill-opacity:1"
       id="path1-2"
       cx="338.28607"
       cy="25.158091"
       rx="10.434136"
       ry="10.59223" />
    <ellipse
       style="fill:#002235;fill-opacity:1"
       id="path1-22"
       cx="384.10419"
       cy="27.327484"
       rx="10.434136"
       ry="10.59223" />
    <ellipse
       style="fill:#002235;fill-opacity:1"
       id="path1-6"
       cx="432.32373"
       cy="40.121716"
       rx="10.434136"
       ry="10.59223" />
    <ellipse
       style="fill:#002235;fill-opacity:1"
       id="path1-19"
       cx="479.14056"
       cy="58.628601"
       rx="10.434136"
       ry="10.59223" />
    <ellipse
       style="fill:#002235;fill-opacity:1"
       id="path1-5"
       cx="523.86829"
       cy="89.695107"
       rx="10.434136"
       ry="10.59223" />
    <ellipse
       style="fill:#002235;fill-opacity:1"
       id="path1-0"
       cx="568.37518"
       cy="137.68004"
       rx="10.434136"
       ry="10.59223" />
    <ellipse
       style="fill:#002235;fill-opacity:1"
       id="path1-61"
       cx="599.97119"
       cy="185.80553"
       rx="10.434136"
       ry="10.59223" />
    <ellipse
       style="fill:#002235;fill-opacity:1"
       id="path1-65"
       cx="621"
       cy="234.91594"
       rx="10.434136"
       ry="10.59223" />
    <ellipse
       style="fill:#002235;fill-opacity:1"
       id="path1-4"
       cx="633.41907"
       cy="288.95984"
       rx="10.434136"
       ry="10.59223" />
    <ellipse
       style="fill:#002235;fill-opacity:1"
       id="path1-7"
       cx="635.32373"
       cy="346.25473"
       rx="10.434136"
       ry="10.59223" />
    <ellipse
       style="fill:#002235;fill-opacity:1"
       id="path1-78"
       cx="598.97742"
       cy="488.82059"
       rx="10.434136"
       ry="10.59223" />
    <ellipse
       style="fill:#002235;fill-opacity:1"
       id="path1-31"
       cx="567.69135"
       cy="535.73901"
       rx="10.434136"
       ry="10.59223" />
    <ellipse
       style="fill:#002235;fill-opacity:1;stroke-width:0.727273"
       id="path1-31-3"
       cx="516.04266"
       cy="583.57928"
       rx="7.5884628"
       ry="7.7034397" />
    <ellipse
       style="fill:#002235;fill-opacity:1;stroke-width:0.636364"
       id="path1-31-3-9"
       cx="463.51312"
       cy="618.23364"
       rx="6.639905"
       ry="6.7405095" />
    <use
       x="0"
       y="0"
       xlink:href="#path1-31"
       id="use2"
       transform="translate(-456.88871)" />
    <use
       x="0"
       y="0"
       xlink:href="#path1-78"
       id="use3"
       transform="translate(-519.49353)" />
    <use
       x="0"
       y="0"
       xlink:href="#path1-7"
       id="use4"
       transform="translate(-592.2163)" />
    <use
       x="0"
       y="0"
       xlink:href="#path1-4"
       id="use5"
       transform="translate(-588.73826)" />
    <use
       x="0"
       y="0"
       xlink:href="#path1-65"
       id="use6"
       transform="translate(-564.39194)" />
    <use
       x="0"
       y="0"
       xlink:href="#path1-61"
       id="use7"
       transform="translate(-521.39065)" />
    <use
       x="0"
       y="0"
       xlink:href="#path1-0"
       id="use8"
       transform="translate(-459.4182)" />
    <use
       x="0"
       y="0"
       xlink:href="#path1-5"
       id="use9"
       transform="translate(-368.67283)" />
    <use
       x="0"
       y="0"
       xlink:href="#path1-19"
       id="use10"
       transform="translate(-280.14076)" />
    <use
       x="0"
       y="0"
       xlink:href="#path1-6"
       id="use11"
       transform="translate(-187.18209)" />
    <use
       x="0"
       y="0"
       xlink:href="#path1-22"
       id="use12"
       transform="translate(-92.958672)" />
    <ellipse
       style="fill:#002235;fill-opacity:1;stroke-width:0.492537"
       id="use13"
       cx="127.03225"
       cy="120.89463"
       rx="5.1392016"
       ry="5.2170687" />
    <ellipse
       style="fill:#002235;fill-opacity:1;stroke-width:0.492537"
       id="use13-7"
       cx="46.61467"
       cy="396.98267"
       rx="5.1392016"
       ry="5.2170687" />
    <ellipse
       style="fill:#002235;fill-opacity:1;stroke-width:0.492537"
       id="use13-7-0"
       cx="55.977341"
       cy="441.96741"
       rx="5.1392016"
       ry="5.2170687" />
    <ellipse
       style="fill:#002235;fill-opacity:1;stroke-width:0.492537"
       id="use13-7-0-4"
       cx="127.36886"
       cy="553.9549"
       rx="5.1392016"
       ry="5.2170687" />
    <ellipse
       style="fill:#002235;fill-opacity:1;stroke-width:0.492537"
       id="use13-7-0-4-7"
       cx="196.53073"
       cy="612.27728"
       rx="5.1392016"
       ry="5.2170687" />
    <use
       x="0"
       y="0"
       xlink:href="#use13"
       id="use14"
       transform="translate(425.5863)" />
    <use
       x="0"
       y="0"
       xlink:href="#use13-7"
       id="use15"
       transform="translate(584.94402)" />
    <use
       x="0"
       y="0"
       xlink:href="#use13-7-0"
       id="use16"
       transform="translate(565.02431)" />
    <use
       x="0"
       y="0"
       xlink:href="#use13-7-0-4"
       id="use17"
       transform="translate(423.373)" />
    <use
       x="0"
       y="0"
       xlink:href="#use13-7-0-4-7"
       id="use18"
       transform="translate(284.25118)" />
    <use
       x="0"
       y="0"
       xlink:href="#path1-31-3"
       id="use19"
       transform="translate(-354.12827)" />
    <use
       x="0"
       y="0"
       xlink:href="#path1-31-3-9"
       id="use20"
       transform="translate(-249.15454)" />
  </g>
  <path
     style="display:inline;fill:#fc8c43;fill-opacity:1;stroke:none;stroke-opacity:1"
     d="m 552.1762,326.02998 -188.13065,3.16186 -22.29111,-41.89464 c 0,0 -16.59976,-21.50065 -16.59976,-22.76539 0,-1.26474 -5.21707,-21.18446 -5.21707,-21.18446 l -33.8319,0.47428 -4.11042,49.00882 -27.98246,4.5847 -12.48934,31.30241 -181.648834,-3.31995 3.794227,-77.78175 29.72149,-66.24096 c 0,0 53.751607,-59.12677 53.593517,-58.4944 -0.1581,0.63237 102.28615,-52.961152 101.65378,-52.012594 -0.63237,0.948558 79.36268,-7.588463 79.36268,-7.588463 l 94.5396,27.191994 63.86957,45.372683 34.46427,56.28111 21.81683,48.85073 6.16562,37.62613 z"
     id="path12" />
  <path
     style="fill:#22bded;fill-opacity:1;stroke:none;stroke-opacity:1"
     d="m 64.304133,327.07052 189.151057,2.12132 4.94975,-38.89088 25.8094,-21.2132 2.12132,-29.69849 41.36574,-0.7071 1.41422,54.44722 35.35534,20.15254 c 0,0 0.7071,20.15255 3.18198,20.5061 2.47487,0.35355 181.37289,-6.36396 181.37289,-6.36396 l -33.23402,118.79394 -41.7193,43.13351 -118.44039,1.76777 -2.82842,28.99138 -43.48707,3.88908 -5.3033,-36.416 -176.06959,-1.06066 -6.36396,-24.74873 -53.386557,-57.27565 z"
     id="path13" />
  <g
     id="layer2"
     transform="translate(-38.933457,-20.826023)">
    <circle
       style="fill:#002235;fill-opacity:1"
       id="path20"
       cx="210.60976"
       cy="227.15446"
       r="9.8373985" />
    <path
       id="rect36"
       style="fill:#002235;fill-opacity:1;stroke:none;stroke-width:1.96157;stroke-linecap:butt;stroke-linejoin:miter;stroke-miterlimit:4;stroke-dasharray:none;stroke-opacity:1;paint-order:normal"
       d="m 236.349,547.78082 h 22.13302 v 46.06404 a 5,5 135 0 1 -5,5 H 241.349 a 5,5 45 0 1 -5,-5 z m -58.00005,-21.33117 h 80.13308 v 21.34255 h -80.13308 a 5,5 45 0 1 -5,-5 v -11.34255 a 5,5 135 0 1 5,-5 z"
       transform="translate(7.1544716,5.8130082)" />
    <use
       x="0"
       y="0"
       xlink:href="#rect36"
       id="use36"
       transform="matrix(-1,0,0,1,690.50984,1.3360691e-8)" />
    <circle
       style="fill:#002235;fill-opacity:1;stroke-width:0.840909"
       id="path20-9"
       cx="262.63821"
       cy="214.49185"
       r="8.2723579" />
    <circle
       style="fill:#002235;fill-opacity:1;stroke-width:2.63636"
       id="path20-9-8"
       cx="472.89432"
       cy="227.93497"
       r="25.934959" />
    <path
       style="fill:#002235;fill-opacity:1;fill-rule:nonzero;stroke:none;stroke-width:1.96157;stroke-linecap:butt;stroke-linejoin:miter;stroke-miterlimit:4;stroke-dasharray:none;stroke-opacity:1;paint-order:normal"
       id="rect37"
       width="16.757856"
       height="21.026367"
       x="206.15324"
       y="557.11969"
       d="m 211.15324,557.11969 h 6.75786 a 5,5 45 0 1 5,5 v 11.02637 a 5,5 135 0 1 -5,5 h -6.75786 a 5,5 45 0 1 -5,-5 v -11.02637 a 5,5 135 0 1 5,-5 z"
       transform="translate(7.1544716,5.8130082)" />
    <use
       x="0"
       y="0"
       xlink:href="#rect37"
       id="use37"
       transform="translate(248.52216)" />
    <path
       style="fill:#002235;fill-opacity:1;fill-rule:nonzero;stroke:none;stroke-width:1.96157;stroke-linecap:butt;stroke-linejoin:miter;stroke-miterlimit:4;stroke-dasharray:none;stroke-opacity:1;paint-order:normal"
       id="rect38"
       width="23.140244"
       height="81.158539"
       x="373.48578"
       y="556.70734"
       d="m 378.48578,556.70734 h 13.14024 a 5,5 45 0 1 5,5 v 71.15854 a 5,5 135 0 1 -5,5 h -13.14024 a 5,5 45 0 1 -5,-5 v -71.15854 a 5,5 135 0 1 5,-5 z"
       transform="translate(7.1544716,5.8130082)" />
  </g>
  <path
     style="display:inline;fill:none;fill-opacity:1;stroke:#002235;stroke-opacity:1"
     d="m 487.59521,483.60916 c 0,0 21.68272,-16.0307 40.57499,-37.82948 18.89228,-21.79878 28.61789,-55.55895 28.61789,-55.55895 0,0 7.60163,-28.5061 7.37805,-38.00813 -0.22358,-9.50203 4.69512,-47.95732 -0.11179,-79.92886 -4.80691,-31.97155 -9.27845,-39.68496 -12.63211,-49.96951 -3.35366,-10.28456 -21.79878,-47.62196 -29.06504,-56.78862 -7.26626,-9.16667 -32.30691,-40.46748 -44.60366,-50.19309 C 465.45679,105.60691 439.96898,85.037797 411.46289,71.734954 382.95679,58.432108 346.62549,50.047962 328.06858,49.37723 309.51167,48.706498 285.5889,48.482921 285.5889,48.482921 c 0,0 -23.25203,0.447154 -57.01219,12.520325 -33.76017,12.073171 -44.82724,19.451221 -59.35976,29.065041 -14.53252,9.61382 -32.64228,19.786593 -57.90651,50.193093 -25.264217,30.4065 -36.443087,47.51016 -45.945117,73.44512 -9.502031,25.93496 -16.768291,49.96952 -17.215446,72.21545 -0.447154,22.24594 -1.006097,53.9939 2.012195,66.29065 3.018293,12.29675 8.719513,62.82521 23.810981,80.26423 15.09146,17.43902 22.91666,28.28252 49.186987,50.75203 26.27032,22.46952 61.26016,7.71342 61.26016,7.71342 l 119.05488,0.11179 3.01829,33.53658 c 0,0 44.15651,-2.23577 44.38008,-1.78862 0.22358,0.44716 1.0061,-33.98374 0.44716,-32.53048 -0.55894,1.45325 127.88618,0.67073 127.88618,0.67073 z"
     id="path3" />
  <path
     id="path48"
     style="color:#000000;font-style:normal;font-variant:normal;font-weight:normal;font-stretch:normal;font-size:medium;line-height:normal;font-family:sans-serif;font-variant-ligatures:normal;font-variant-position:normal;font-variant-caps:normal;font-variant-numeric:normal;font-variant-alternates:normal;font-variant-east-asian:normal;font-feature-settings:normal;font-variation-settings:normal;text-indent:0;text-align:start;text-decoration-line:none;text-decoration-style:solid;text-decoration-color:#000000;letter-spacing:normal;word-spacing:normal;text-transform:none;writing-mode:lr-tb;direction:ltr;text-orientation:mixed;dominant-baseline:auto;baseline-shift:baseline;text-anchor:start;white-space:normal;shape-padding:0;shape-margin:0;inline-size:0;clip-rule:nonzero;display:inline;overflow:visible;visibility:visible;isolation:auto;mix-blend-mode:normal;color-interpolation:sRGB;color-interpolation-filters:linearRGB;solid-color:#000000;solid-opacity:1;vector-effect:none;fill:#002235;fill-opacity:1;fill-rule:nonzero;stroke:none;stroke-linecap:butt;stroke-linejoin:miter;stroke-miterlimit:4;stroke-dasharray:none;stroke-dashoffset:0;stroke-opacity:1;-inkscape-stroke:none;paint-order:normal;color-rendering:auto;image-rendering:auto;shape-rendering:auto;text-rendering:auto;enable-background:accumulate;stop-color:#000000;stop-opacity:1"
     d="m 326.73047,69.253906 -11.43164,0.726563 -22.91602,4.248047 -17.96875,5.197265 -15.06445,5.337891 -15.56641,6.259766 -21.26758,10.507812 -19.92578,12.88477 -18.19531,12.51953 -15.95703,14.39257 -13.72266,14.50586 -14.7832,17.68946 -12.49219,16.85351 -11.8789,18.83594 -7.26563,15.3418 -9.445311,25.23633 -5.226562,16.85351 -3.521485,14.81055 -1.371093,9.64258 h -0.472657 l -0.447265,5.08593 -0.671875,14.8125 -0.470703,26.29493 h -0.0332 l 0.01953,0.67382 -0.01758,1.03321 h 0.05078 l 0.105469,3.50976 1.027343,19.8418 3.003907,18.25977 5.691406,30.90624 5.691406,20.31446 0.125,0.0781 -0.16406,0.041 2.41015,6.71875 5.13868,10.31641 8.3789,10.59179 13.87305,15.73047 12.64648,13.12109 16.67383,14.91016 v 15.70117 H 284.0332 v 124.53125 h 23.69922 V 519.03906 h 24.57813 v 144.96485 c -4.6e-4,6.62868 5.37327,12.00241 12.00195,12.00195 6.59236,-0.0361 11.90723,-5.40959 11.87109,-12.00195 V 552.92969 h 42.74414 c 2.76143,0 5,-2.23858 5,-5 v -13.41797 -15.8086 h 118.1543 c 2.76142,0 5,-2.23856 5,-5 v -10.1621 l 9.30859,-7.03125 15.28711,-13.63868 15.59375,-16.43359 8.02149,-10.67578 7.74023,-13.63867 7.38477,-16.32032 4.30078,-11.69531 0.18555,-0.0625 4.89843,-18.87304 2.23438,-12.6875 1.00586,-7.99219 0.2793,-9.44727 0.95117,-13.30273 0.57812,-12.1211 0.13086,-0.19531 0.27735,-17.58789 -0.38672,-7.48828 H 605 v -2.17969 l -0.55859,-6.98633 -1.0625,-9.05468 -0.73829,-3.1875 c 0.002,-0.005 0.0957,-0.16797 0.0957,-0.16797 l -2.34766,-15.39844 -4.77929,-19.58984 -8.2168,-22.41407 -11.12305,-22.86132 -9.75195,-18.61329 -6.23242,-8.71875 -10.81641,-13.52539 -14.7832,-17.27148 L 518.58788,137.27734 502.3789,125.0918 488.57226,115.03125 463.44726,99.044922 438.91015,87.501953 417.1953,80.013672 390.70116,73.166016 374.01757,70.59375 Z m 22.02344,26.234375 c 35.72901,-0.158093 71.61548,11.225119 105.60547,28.773439 33.98998,17.54832 63.07824,48.53435 74.46093,64.18555 11.3827,15.65121 39.05033,60.3904 46.79688,102.12695 0.0681,0.36678 0.1528,0.61639 0.22265,0.9707 H 377.0625 v -69.5332 h -0.20508 c 1.09583,-0.9943 18.31533,-16.85941 18.92774,-33.01172 0.63237,-16.67881 -1.10561,-29.72056 -12.48828,-42.13086 -11.3827,-12.4103 -25.05874,-17.31272 -39.28711,-17.62891 -14.22837,-0.31618 -27.26973,6.40406 -35.96485,14.4668 -8.69511,8.06274 -16.5224,21.73776 -16.44336,35.01758 0.079,13.27981 0.71314,27.03294 19.28906,43.47461 0.13507,0.11954 0.25129,0.20384 0.38477,0.32031 v 68.57813 H 115.36328 c 0.22936,-1.90167 3.90193,-30.43549 24.07422,-68.0293 20.86827,-38.89088 48.69336,-63.55274 48.69336,-63.55274 0,0 22.76598,-23.24029 56.91406,-40.15624 34.14808,-16.91595 67.97997,-23.713006 103.70899,-23.871099 z m -4.90235,59.837889 c 14.6692,-5.1e-4 26.56106,11.89135 26.56055,26.56055 -5.7e-4,14.66843 -11.89212,26.5591 -26.56055,26.55859 -14.66767,-5.7e-4 -26.55802,-11.89092 -26.55859,-26.55859 -5.1e-4,-14.66843 11.89016,-26.55998 26.55859,-26.56055 z m -0.77148,62.87891 c 3.23264,-0.11894 7.13134,1.66679 11.52734,7.2832 v 21.84375 h -21.70117 v -21.24414 c 0.0202,-0.0618 0.0762,-0.21289 0.0762,-0.21289 0,0 3.78012,-7.43748 10.09766,-7.66992 z m -10.17383,54.61523 h 21.70117 v 18.72461 h -0.004 v 27.26953 c 0,2.76143 2.23867,5.01565 5,5.01758 2.70311,0.002 6.78922,-0.002 12.90234,-0.0176 15.29549,-0.0395 15.61328,14.42578 15.61328,14.42578 l 0.004,0.002 v 51.08593 h 25.83007 V 363.08398 H 577.3125 c 0.11612,0.79926 0.20218,5.19121 -4.7207,26.2754 H 388.13086 v 20.15234 c 0,2.76142 2.23858,5 5,5 h 173.04883 c -0.38121,2.21586 -2.42985,10.31515 -13.32031,25.46094 H 403.92773 385.29297 c -2.76142,0 -5,2.23857 -5,5 v 89.53906 H 356.18359 V 412.93945 394.06641 c 0,-2.76143 -2.23857,-5 -5,-5 h -51.67578 c -0.005,-2.29605 -0.0762,-33.08206 0,-49.16602 0.0689,-14.53818 9.37692,-16.70102 11.76758,-17.01758 v -0.002 h 16.63086 a 5,5 135 0 0 5,-5 z m -220.44727,40.70703 h 168.21485 v 2.39258 l 0.0117,0.0371 c -7.10664,6.01249 -8.13282,21.33399 -8.13282,21.33399 H 112.45898 Z m 294.50782,0.82227 h 169.80859 c 0.42318,2.67909 2.50765,16.59582 1.375,23.81055 H 414.13867 c 0.67554,-13.76599 -7.17187,-23.81055 -7.17187,-23.81055 z m -294.08789,46.81445 h 162.12304 v 27.90235 H 118.20117 c -5.14499,-12.03528 -5.32226,-27.90235 -5.32226,-27.90235 z m 10.61132,52.88086 h 208.82032 v 88.00196 h -24.01953 v -62.1543 h -23.81055 v -0.0293 H 136.87109 l 0.006,0.0254 h -0.006 v -0.0254 -0.004 l -0.0488,-0.002 c -0.26475,-0.33815 -11.51373,-14.74842 -13.1543,-25.02148 -0.0463,-0.28984 -0.12002,-0.52476 -0.17774,-0.79102 z m 280.4375,42.76563 h 131.31641 c -6.0078,7.57447 -13.01211,12.08358 -14.7207,13.12109 H 418.63086 v 17.31055 13.7539 h -14.70313 z m -249.36523,0.4082 h 129.35742 v 44.82813 h -14.86719 v -32.19532 h -20.3457 v -0.0566 h -81.08789 z m 22.28711,28.73047 h 14.39844 v 16.09766 h -14.39844 z m 36.98047,0 h 31.9707 v 16.09766 h -31.9707 z m 227.01172,1.29297 h 30.75 v 13.7539 h -30.75 z m 53.59375,0 h 14.78125 v 13.7539 h -14.78125 z"
     transform="translate(-38.933457,-20.826023)" />
</svg>
